<svg width="96" height="96" viewBox="0 0 96 96" fill="none" xmlns="http://www.w3.org/2000/svg" role="img" aria-label="Flower Travel flower logo">
  <rect width="96" height="96" rx="18" fill="#FFF8EF"/>
  <circle cx="48" cy="48" r="35" stroke="#0F3D4A" stroke-width="1.6"/>
  <path d="M48 74C46.4 63.8 47.1 54.6 48 42" stroke="#0F3D4A" stroke-width="2.2" stroke-linecap="round"/>
  <path d="M47.2 59.8C39.5 53.7 33.3 53.3 29.4 58.2C36.1 61.9 42.1 62.4 47.2 59.8Z" fill="#D8EEF0" stroke="#0F3D4A" stroke-width="1.4" stroke-linejoin="round"/>
  <path d="M48.9 64.4C56.5 57.3 63.2 56.3 68 61C61.9 66.2 55 67.5 48.9 64.4Z" fill="#E4F0E6" stroke="#0F3D4A" stroke-width="1.4" stroke-linejoin="round"/>
  <g stroke="#0F3D4A" stroke-width="1.2">
    <ellipse cx="48" cy="26" rx="7.4" ry="15.5" fill="#F5B1A0" transform="rotate(0 48 40)"/>
    <ellipse cx="48" cy="26" rx="7.4" ry="15.5" fill="#F6C5B5" transform="rotate(60 48 40)"/>
    <ellipse cx="48" cy="26" rx="7.4" ry="15.5" fill="#F5B1A0" transform="rotate(120 48 40)"/>
    <ellipse cx="48" cy="26" rx="7.4" ry="15.5" fill="#F6C5B5" transform="rotate(180 48 40)"/>
    <ellipse cx="48" cy="26" rx="7.4" ry="15.5" fill="#F5B1A0" transform="rotate(240 48 40)"/>
    <ellipse cx="48" cy="26" rx="7.4" ry="15.5" fill="#F6C5B5" transform="rotate(300 48 40)"/>
  </g>
  <circle cx="48" cy="40" r="7" fill="#F0A15D" stroke="#0F3D4A" stroke-width="1.2"/>
  <circle cx="48" cy="40" r="2.2" fill="#FFF8EF"/>
</svg>
